<?xml version="1.0" encoding="UTF-8" standalone="no"?>
<!-- Created with Inkscape (http://www.inkscape.org/) -->

<svg
   width="297mm"
   height="76mm"
   viewBox="0 0 297 76"
   version="1.1"
   id="svg5"
   xml:space="preserve"
   inkscape:version="1.2.2 (732a01da63, 2022-12-09, custom)"
   sodipodi:docname="logo.svg"
   xmlns:inkscape="http://www.inkscape.org/namespaces/inkscape"
   xmlns:sodipodi="http://sodipodi.sourceforge.net/DTD/sodipodi-0.dtd"
   xmlns="http://www.w3.org/2000/svg"
   xmlns:svg="http://www.w3.org/2000/svg"><sodipodi:namedview
     id="namedview7"
     pagecolor="#ffffff"
     bordercolor="#000000"
     borderopacity="0.25"
     inkscape:showpageshadow="2"
     inkscape:pageopacity="0.0"
     inkscape:pagecheckerboard="0"
     inkscape:deskcolor="#d1d1d1"
     inkscape:document-units="mm"
     showgrid="false"
     inkscape:zoom="0.73271873"
     inkscape:cx="551.37119"
     inkscape:cy="483.13218"
     inkscape:window-width="1920"
     inkscape:window-height="1011"
     inkscape:window-x="0"
     inkscape:window-y="0"
     inkscape:window-maximized="1"
     inkscape:current-layer="layer1" /><defs
     id="defs2" /><g
     inkscape:label="Layer 1"
     inkscape:groupmode="layer"
     id="layer1"><text
       xml:space="preserve"
       style="font-weight:bold;font-size:12.7px;font-family:Nazanin;-inkscape-font-specification:'Nazanin Bold';opacity:0.313215;fill:#ffffff;stroke-width:0.657;stroke-miterlimit:6.8;paint-order:markers fill stroke"
       x="32.150166"
       y="192.2635"
       id="text356"><tspan
         sodipodi:role="line"
         id="tspan354"
         style="stroke-width:0.657"
         x="32.150166"
         y="192.2635" /></text><g
       id="g464"
       transform="translate(34.423437)"><g
         aria-label="BEYRAN HOTEL"
         transform="matrix(0.57486378,0,0,0.57486378,2.7575454,9.4342117)"
         id="text412"
         style="font-weight:bold;font-size:42.7022px;font-family:Nazanin;-inkscape-font-specification:'Nazanin Bold';letter-spacing:-1.84679px;white-space:pre;inline-size:379.299;stroke-width:2.20908;stroke-miterlimit:6.8;paint-order:markers fill stroke"><path
           id="path1085"
           style="font-family:'Noto Color Emoji';-inkscape-font-specification:'Noto Color Emoji Bold'"
           d="m 369.96262,74.06563 h 8.02752 v 25.062522 h 14.09506 v 6.067548 h -22.12258 z m -27.3233,0 h 21.66386 v 6.067549 h -13.63635 v 5.79649 H 363.49 v 6.067549 h -12.82317 v 7.130934 h 14.09507 v 6.067548 h -22.12258 z m -30.99304,0 h 28.69054 v 6.067549 H 330.01573 V 105.1957 h -8.02751 V 80.133179 h -10.34194 z m -16.52266,5.254372 c -2.44648,0 -4.34389,0.90353 -5.69224,2.710589 -1.34835,1.807059 -2.02252,4.350843 -2.02252,7.631351 0,3.266607 0.67417,5.80344 2.02252,7.610499 1.34835,1.807059 3.24576,2.710589 5.69224,2.710589 2.46038,0 4.36474,-0.90353 5.71308,-2.710589 1.34835,-1.807059 2.02252,-4.343892 2.02252,-7.610499 0,-3.280508 -0.67417,-5.824292 -2.02252,-7.631351 -1.34834,-1.807059 -3.2527,-2.710589 -5.71308,-2.710589 z m 0,-5.817341 c 5.00416,0 8.92409,1.431747 11.75978,4.295241 2.83569,2.863494 4.25354,6.818174 4.25354,11.86404 0,5.031965 -1.41785,8.979694 -4.25354,11.843188 -2.83569,2.86349 -6.75562,4.29524 -11.75978,4.29524 -4.99027,0 -8.9102,-1.43175 -11.75979,-4.29524 -2.83569,-2.863494 -4.25354,-6.811223 -4.25354,-11.843188 0,-5.045866 1.41785,-9.000546 4.25354,-11.86404 2.84959,-2.863494 6.76952,-4.295241 11.75979,-4.295241 z M 191.44967,74.06563 h 8.02751 v 15.568206 h 67.40569 V 74.06563 h 8.02751 v 31.13007 h -8.02751 v -8.435982 h -67.40569 v 8.435982 h -8.02751 z m -46.91103,0 h 8.9658 l 11.32192,21.351101 V 74.06563 h 7.6105 v 31.13007 h -8.9658 L 152.14914,83.844601 V 105.1957 h -7.6105 z M 132.22782,99.524315 H 119.6757 l -1.98081,5.671385 h -8.06922 L 121.1561,74.06563 h 9.57047 L 142.257,105.1957 h -8.06922 z m -10.55045,-5.775639 h 8.52793 L 125.95176,81.363369 Z M 93.707677,87.868783 c 1.681955,0 2.884344,-0.31276 3.607168,-0.938281 0.736724,-0.625521 1.105086,-1.654154 1.105086,-3.085901 0,-1.417847 -0.368362,-2.43258 -1.105086,-3.0442 -0.722824,-0.61162 -1.925213,-0.91743 -3.607168,-0.91743 h -3.377811 v 7.985812 z m -3.377811,5.546282 V 105.1957 H 82.302352 V 74.06563 h 12.260203 c 4.100637,0 7.103135,0.688072 9.007495,2.064217 1.91826,1.376145 2.87739,3.551567 2.87739,6.526265 0,2.057267 -0.50041,3.746173 -1.50124,5.066716 -0.98693,1.320543 -2.48123,2.293575 -4.4829,2.919096 1.09813,0.250208 2.07811,0.820127 2.93994,1.709756 0.87573,0.875729 1.75841,2.210172 2.64804,4.003331 l 4.35779,8.840689 h -8.54878 L 98.06547,97.460098 C 97.300945,95.903247 96.522519,94.839862 95.730193,94.269943 94.951768,93.700024 93.909233,93.415065 92.60259,93.415065 Z M 48.890638,74.06563 h 8.778138 L 64.758009,85.158194 71.847241,74.06563 H 80.64623 L 68.782191,92.080621 V 105.1957 H 60.754677 V 92.080621 Z m -22.986376,0 h 21.663861 v 6.067549 H 33.931775 v 5.79649 h 12.823171 v 6.067549 H 33.931775 v 7.130934 H 48.026838 V 105.1957 H 25.904262 Z M 7.6718411,86.117325 c 1.2649415,0 2.2240732,-0.278009 2.8773949,-0.834027 0.653321,-0.556018 0.979982,-1.376145 0.979982,-2.460381 0,-1.070335 -0.326661,-1.883512 -0.979982,-2.43953 C 9.8959143,79.813468 8.9367826,79.528509 7.6718411,79.528509 H 3.2306453 v 6.588816 z M 7.9429,99.732822 c 1.6124527,0 2.821792,-0.340561 3.628019,-1.021683 0.820127,-0.681123 1.230191,-1.709757 1.230191,-3.085902 0,-1.348344 -0.403113,-2.356127 -1.20934,-3.023349 C 10.785543,91.920766 9.5692533,91.580205 7.9429,91.580205 H 3.2306453 v 8.152617 z m 7.464545,-11.196817 c 1.723657,0.500416 3.058101,1.424796 4.003332,2.773141 0.945231,1.348344 1.417846,3.002498 1.417846,4.962463 0,3.002501 -1.014733,5.240471 -3.0442,6.713921 -2.029467,1.47345 -5.115368,2.21017 -9.2577038,2.21017 H -4.7968682 V 74.06563 H 7.2548274 c 4.3230416,0 7.4506446,0.653321 9.3828076,1.959964 1.946064,1.306643 2.919096,3.398661 2.919096,6.276056 0,1.51515 -0.354462,2.807892 -1.063385,3.878227 -0.708923,1.056435 -1.737557,1.841811 -3.085901,2.356128 z"
           sodipodi:nodetypes="cccccccccccccccccccccccccccccsssssssssssssscscscccccccccccccccccccccccccccccccccccccscscsccsccccscsccccccccsccccccccccccccccccccccccssscsccsscscsccscssssccscscc" /></g><path
         id="path1244"
         style="fill:#000000;stroke-width:0.612109;stroke-miterlimit:6.8;paint-order:markers fill stroke"
         d="m 120.4728,56.349492 c -2.82861,0 -2.90844,4.267629 -2.90844,4.267629 l -0.002,0.05031 h 10.59021 c -0.88288,-3.314031 -3.29721,-4.31793 -7.67884,-4.31793 z"
         sodipodi:nodetypes="sccccs" /></g><g
       aria-label="هـتـــــــــل بـیـــران"
       id="text1361"
       style="font-weight:bold;font-size:43.3715px;font-family:'Noto Color Emoji';-inkscape-font-specification:'Noto Color Emoji Bold';stroke-width:2.24371;stroke-miterlimit:6.8;paint-order:markers fill stroke"
       transform="matrix(0.85605326,0,0,0.85605326,49.397665,-56.370468)"><path
         id="path1432"
         style="font-family:Vazirmatn;-inkscape-font-specification:'Vazirmatn Bold'"
         d="m -37.963695,76.056803 -3.663705,3.663706 3.663705,3.663706 3.663706,-3.663706 z m 0.275308,23.337593 q -3.070736,0 -4.828468,-1.037697 -1.757732,-1.037697 -2.498944,-2.774251 -0.720034,-1.736554 -0.720034,-3.833125 0,-1.863619 0.508259,-3.981368 0.50826,-2.138927 1.249472,-4.299031 l -4.80729,-1.863619 q -0.995342,2.583654 -1.545956,5.23084 -0.529438,2.626009 -0.529438,5.103775 0,3.684883 1.376537,6.649732 1.397714,2.964848 4.29903,4.680228 2.922494,1.73655 7.496832,1.73655 4.426095,0 7.390943,-1.65184 2.986026,-1.63067 4.489628,-4.637873 1.503602,-2.986026 1.503602,-7.073282 0,-2.689541 -0.50826,-5.336727 -0.487082,-2.668364 -1.673021,-5.760277 l -5.252018,1.990684 q 0.8471,2.075394 1.567134,4.510805 0.720035,2.435411 0.720035,4.764935 0,2.117749 -0.76239,3.833126 -0.741212,1.715376 -2.541298,2.731896 -1.800087,1.016519 -4.934355,1.016519 z m 23.485833,-33.545143 h -5.379082 v 29.77555 h 5.379082 z M 2.6335511,95.645981 H 3.2053433 V 89.949236 H 2.4005987 q -1.41889179,0 -2.18128141,-0.868277 -0.74121212,-0.889454 -1.12240693,-2.350701 l -1.22829436,-4.72258 -5.2520174,1.736554 q 0.6988572,2.075394 1.2494719,4.404918 0.5717922,2.308346 0.5717922,4.21432 0,2.816606 -1.1435844,4.701403 -1.1435844,1.884796 -3.3460433,3.028377 -2.181281,1.16477 -5.31555,1.86362 l 1.948329,5.20967 q 3.7272383,-0.74122 6.3744245,-2.45659 2.6683636,-1.6942 4.2566753,-4.21432 1.5883117,-2.520125 2.09657145,-5.675571 0.57179222,0.360017 1.44006928,0.592969 0.86827707,0.232953 1.88479657,0.232953 z M 2.4005986,89.949236 v 5.696745 H 15.191802 v -5.696745 z m 11.9652824,0 v 5.696745 h 12.791204 v -5.696745 z m 11.965286,0 v 5.696745 h 12.791204 v -5.696745 z m 11.901746,0 v 5.696745 h 1.6942 v -5.696745 z m 7.708607,8.534528 -3.494286,3.473106 3.494286,3.51547 3.494285,-3.51547 z m -7.157992,0 -3.451931,3.473106 3.451931,3.51547 3.536641,-3.51547 z m 6.692087,-17.429073 q 0.105887,1.080052 0.148242,2.223636 0.06353,1.122407 0.06353,2.308346 0,2.202459 -0.93181,3.282511 -0.931809,1.080052 -3.324866,1.080052 H 39.41885 v 5.696745 h 2.011861 q 2.011862,0 3.790771,-0.741212 1.800087,-0.741212 3.049558,-2.096572 0.635325,0.8471 1.503602,1.482425 0.868277,0.635324 2.011862,0.995342 1.143584,0.360017 2.583653,0.360017 h 0.465905 v -5.696745 h -0.42355 q -1.185939,0 -1.948329,-0.444727 -0.762389,-0.444727 -1.164762,-1.270649 -0.381194,-0.825923 -0.444727,-1.927152 l -0.42355,-5.844987 z m 8.555709,8.894545 v 5.696745 h 12.791204 v -5.696745 z m 11.922924,0 v 5.696745 h 1.01652 v -5.696745 z m 4.362563,8.343931 -3.663706,3.663703 3.663706,3.66371 3.663706,-3.66371 z m -1.545957,-2.647186 q 3.409576,0 5.379082,-1.228295 1.969507,-1.249471 2.816607,-3.45193 0.847099,-2.223637 0.847099,-5.188485 0,-1.821264 -0.275307,-3.811948 -0.25413,-2.011862 -0.783567,-4.087256 l -5.124953,1.376537 q 0.59297,2.287169 0.825922,4.150788 0.25413,1.863619 0.25413,3.028381 0,2.011861 -0.974164,2.774251 -0.952987,0.741212 -3.007204,0.741212 h -2.308346 v 5.696745 z m 35.832306,10.504039 q 2.88014,0 4.99789,-0.78357 2.13893,-0.78357 3.55782,-2.28717 1.41889,-1.5036 2.1601,-3.663706 0.76239,-2.160104 0.93181,-4.913178 0.48708,0.381195 0.97417,0.635325 0.50826,0.25413 1.1224,0.381195 0.63533,0.127065 1.5036,0.127065 h 0.59297 v -5.696745 h -0.63532 q -2.11775,0 -2.77425,-1.291827 -0.63533,-1.291826 -0.63533,-3.409575 V 65.849253 h -5.37908 V 92.70231 q 0,2.498944 -0.59297,4.235498 -0.59297,1.757731 -2.01186,2.668363 -1.39771,0.931809 -3.81195,0.931809 -2.47776,0 -4.06608,-0.783566 -1.56713,-0.76239 -2.350697,-2.265992 -0.76239,-1.503601 -0.76239,-3.642528 0,-1.905974 0.550615,-4.087255 0.550615,-2.181282 1.228294,-4.087256 l -4.80729,-1.863619 q -0.931809,2.393057 -1.503601,4.997888 -0.550615,2.583653 -0.550615,4.997887 0,3.875481 1.355359,6.628551 1.35536,2.77425 4.066078,4.2355 2.731897,1.48243 6.840327,1.48243 z m 15.03602,-16.200784 v 5.696745 h 12.7912 v -5.696745 z m 11.96527,0 v 5.696745 h 12.79121 v -5.696745 z m 11.96529,0 v 5.696745 h 12.7912 v -5.696745 z m 11.96528,0 v 5.696745 h 12.79121 v -5.696745 z m 11.96528,0 v 5.696745 h 12.7912 v -5.696745 z m 11.96528,0 v 5.696745 h 12.79121 v -5.696745 z m 11.96527,0 v 5.696745 h 12.79121 v -5.696745 z m 11.96532,0 v 5.696745 h 12.7912 v -5.696745 z m 11.96527,0 v 5.696745 h 12.7912 v -5.696745 z m 11.94409,0 v 5.696745 h 1.50361 v -5.696745 z m 9.38163,-19.758597 -3.49428,3.473108 3.49428,3.515463 3.49429,-3.515463 z m -7.15799,0 -3.45193,3.473108 3.45193,3.515463 3.53664,-3.515463 z m 4.78611,10.864052 q 0.10589,1.080052 0.14825,2.223636 0.0635,1.122407 0.0635,2.308346 0,2.202459 -0.93181,3.282511 -0.93181,1.080052 -3.32487,1.080052 h -2.01186 v 5.696745 h 2.01186 q 2.01186,0 3.79077,-0.741212 1.80009,-0.741212 3.04956,-2.096572 0.63533,0.8471 1.5036,1.482425 0.86828,0.635324 2.01187,0.995342 1.14358,0.360017 2.58365,0.360017 h 0.4659 v -5.696745 h -0.42355 q -1.18594,0 -1.94833,-0.444727 -0.76238,-0.444727 -1.16476,-1.270649 -0.38119,-0.825923 -0.44472,-1.927152 l -0.42355,-5.844987 z m 8.55571,8.894545 v 5.696745 h 12.79121 v -5.696745 z m 20.05507,-5.14613 q 0,-1.270649 1.0377,-2.138926 1.0377,-0.889455 2.47777,-0.889455 0.91063,0 1.63066,0.465905 0.74122,0.444727 1.18594,1.228294 0.44473,0.76239 0.44473,1.673022 0,0.804745 -0.52944,1.503602 -0.52943,0.698857 -1.29182,1.207117 -0.76239,0.487082 -1.48243,0.698857 -0.91063,-0.317662 -1.71537,-0.889455 -0.78357,-0.571792 -1.27065,-1.313004 -0.48709,-0.741212 -0.48709,-1.545957 z m 2.56248,-6.755619 q 3.36722,1.524779 5.7391,2.753074 2.39306,1.207117 3.91784,2.160104 1.52478,0.952987 2.37187,1.694199 0.8471,0.741212 1.18594,1.313004 0.36002,0.571792 0.36002,1.037697 0,1.821264 -1.10123,2.541299 -1.10123,0.698857 -2.60483,0.698857 -0.48708,0 -1.46125,-0.08471 -0.95298,-0.08471 -1.92715,-0.232952 0.6565,-0.720035 1.12241,-1.567134 0.4659,-0.8471 0.72003,-1.821265 0.27531,-0.995342 0.27531,-2.138926 0,-2.054216 -1.18594,-3.642528 -1.16476,-1.609489 -3.0072,-2.541299 -1.82127,-0.931809 -3.74842,-0.931809 -2.62601,0 -4.46845,1.101229 -1.82126,1.080052 -2.77425,2.816606 -0.95299,1.736554 -0.95299,3.642528 0,0.8471 0.21178,1.778909 0.21177,0.93181 0.59297,1.778909 0.38119,0.825923 0.91063,1.44007 -0.76239,0.06353 -1.48242,0.08471 -0.69886,0.02118 -1.54596,0.02118 h -1.77891 v 5.696745 h 2.05422 q 2.32952,0 4.76493,-0.571792 2.45659,-0.571793 4.36257,-1.249472 1.08005,0.33884 2.54129,0.720034 1.48243,0.381195 3.09192,0.635325 1.60949,0.25413 3.09191,0.25413 4.19314,0 6.71327,-2.181281 2.54129,-2.202459 2.54129,-6.395602 0,-2.138927 -1.05887,-3.833126 -1.0377,-1.694199 -3.09191,-3.197801 -2.05422,-1.503601 -5.06142,-3.070736 -3.00721,-1.567134 -6.92504,-3.430753 z" /></g></g></svg>
