<?xml version="1.0" encoding="UTF-8"?>
<svg width="297mm" height="76mm" version="1.1" viewBox="0 0 297 76" xml:space="preserve" xmlns="http://www.w3.org/2000/svg"><g stroke-miterlimit="6.8"><text x="32.150166" y="192.2635" fill="#ffffff" font-family="Nazanin" font-size="12.7px" font-weight="bold" opacity=".31322" stroke-width=".657" style="paint-order:markers fill stroke" xml:space="preserve"><tspan x="32.150166" y="192.2635" stroke-width=".657"/></text><g transform="translate(34.423)"><g transform="matrix(.57486 0 0 .57486 2.7575 9.4342)" stroke-width="2.2091" style="inline-size:379.299;paint-order:markers fill stroke;white-space:pre" aria-label="BEYRAN HOTEL"><path d="m369.96 74.066h8.0275v25.063h14.095v6.0675h-22.123zm-27.323 0h21.664v6.0675h-13.636v5.7965h12.823v6.0675h-12.823v7.1309h14.095v6.0675h-22.123zm-30.993 0h28.691v6.0675h-10.321v25.063h-8.0275v-25.063h-10.342zm-16.523 5.2544c-2.4465 0-4.3439 0.90353-5.6922 2.7106s-2.0225 4.3508-2.0225 7.6314c0 3.2666 0.67417 5.8034 2.0225 7.6105s3.2458 2.7106 5.6922 2.7106c2.4604 0 4.3647-0.90353 5.7131-2.7106 1.3484-1.8071 2.0225-4.3439 2.0225-7.6105 0-3.2805-0.67417-5.8243-2.0225-7.6314-1.3483-1.8071-3.2527-2.7106-5.7131-2.7106zm0-5.8173c5.0042 0 8.9241 1.4317 11.76 4.2952s4.2535 6.8182 4.2535 11.864c0 5.032-1.4178 8.9797-4.2535 11.843-2.8357 2.8635-6.7556 4.2952-11.76 4.2952-4.9903 0-8.9102-1.4318-11.76-4.2952-2.8357-2.8635-4.2535-6.8112-4.2535-11.843 0-5.0459 1.4178-9.0005 4.2535-11.864 2.8496-2.8635 6.7695-4.2952 11.76-4.2952zm-103.67 0.56297h8.0275v15.568h67.406v-15.568h8.0275v31.13h-8.0275v-8.436h-67.406v8.436h-8.0275zm-46.911 0h8.9658l11.322 21.351v-21.351h7.6105v31.13h-8.9658l-11.322-21.351v21.351h-7.6105zm-12.311 25.459h-12.552l-1.9808 5.6714h-8.0692l11.53-31.13h9.5705l11.53 31.13h-8.0692zm-10.55-5.7756h8.5279l-4.2535-12.385zm-27.97-5.8799c1.682 0 2.8843-0.31276 3.6072-0.93828 0.73672-0.62552 1.1051-1.6542 1.1051-3.0859 0-1.4178-0.36836-2.4326-1.1051-3.0442-0.72282-0.61162-1.9252-0.91743-3.6072-0.91743h-3.3778v7.9858zm-3.3778 5.5463v11.781h-8.0275v-31.13h12.26c4.1006 0 7.1031 0.68807 9.0075 2.0642 1.9183 1.3761 2.8774 3.5516 2.8774 6.5263 0 2.0573-0.50041 3.7462-1.5012 5.0667-0.98693 1.3205-2.4812 2.2936-4.4829 2.9191 1.0981 0.25021 2.0781 0.82013 2.9399 1.7098 0.87573 0.87573 1.7584 2.2102 2.648 4.0033l4.3578 8.8407h-8.5488l-3.7948-7.7356c-0.76452-1.5569-1.543-2.6202-2.3353-3.1902-0.77842-0.56992-1.821-0.85488-3.1276-0.85488zm-41.439-19.349h8.7781l7.0892 11.093 7.0892-11.093h8.799l-11.864 18.015v13.115h-8.0275v-13.115zm-22.986 0h21.664v6.0675h-13.636v5.7965h12.823v6.0675h-12.823v7.1309h14.095v6.0675h-22.123zm-18.232 12.052c1.2649 0 2.2241-0.27801 2.8774-0.83403 0.65332-0.55602 0.97998-1.3761 0.97998-2.4604 0-1.0703-0.32666-1.8835-0.97998-2.4395-0.65332-0.56992-1.6125-0.85488-2.8774-0.85488h-4.4412v6.5888zm0.27106 13.615c1.6125 0 2.8218-0.34056 3.628-1.0217 0.82013-0.68112 1.2302-1.7098 1.2302-3.0859 0-1.3483-0.40311-2.3561-1.2093-3.0233-0.80623-0.68112-2.0225-1.0217-3.6489-1.0217h-4.7123v8.1526zm7.4645-11.197c1.7237 0.50042 3.0581 1.4248 4.0033 2.7731 0.94523 1.3483 1.4178 3.0025 1.4178 4.9625 0 3.0025-1.0147 5.2405-3.0442 6.7139s-5.1154 2.2102-9.2577 2.2102h-13.324v-31.13h12.052c4.323 0 7.4506 0.65332 9.3828 1.96 1.9461 1.3066 2.9191 3.3987 2.9191 6.2761 0 1.5152-0.35446 2.8079-1.0634 3.8782-0.70892 1.0564-1.7376 1.8418-3.0859 2.3561z"/></g><path d="m120.47 56.349c-2.8286 0-2.9084 4.2676-2.9084 4.2676l-2e-3 0.05031h10.59c-0.88288-3.314-3.2972-4.3179-7.6788-4.3179z" stroke-width=".61211" style="paint-order:markers fill stroke"/></g><g transform="matrix(.85605 0 0 .85605 49.398 -56.37)" stroke-width="2.2437" style="paint-order:markers fill stroke" aria-label="هـتـــــــــل بـیـــران"><path d="m-37.964 76.057-3.6637 3.6637 3.6637 3.6637 3.6637-3.6637zm0.27531 23.338q-3.0707 0-4.8285-1.0377t-2.4989-2.7743q-0.72003-1.7366-0.72003-3.8331 0-1.8636 0.50826-3.9814 0.50826-2.1389 1.2495-4.299l-4.8073-1.8636q-0.99534 2.5837-1.546 5.2308-0.52944 2.626-0.52944 5.1038 0 3.6849 1.3765 6.6497 1.3977 2.9648 4.299 4.6802 2.9225 1.7366 7.4968 1.7366 4.4261 0 7.3909-1.6518 2.986-1.6307 4.4896-4.6379 1.5036-2.986 1.5036-7.0733 0-2.6895-0.50826-5.3367-0.48708-2.6684-1.673-5.7603l-5.252 1.9907q0.8471 2.0754 1.5671 4.5108 0.72004 2.4354 0.72004 4.7649 0 2.1177-0.76239 3.8331-0.74121 1.7154-2.5413 2.7319-1.8001 1.0165-4.9344 1.0165zm23.486-33.545h-5.3791v29.776h5.3791zm16.836 29.797h0.57179v-5.6967h-0.80474q-1.4189 0-2.1813-0.86828-0.74121-0.88945-1.1224-2.3507l-1.2283-4.7226-5.252 1.7366q0.69886 2.0754 1.2495 4.4049 0.57179 2.3083 0.57179 4.2143 0 2.8166-1.1436 4.7014-1.1436 1.8848-3.346 3.0284-2.1813 1.1648-5.3156 1.8636l1.9483 5.2097q3.7272-0.74122 6.3744-2.4566 2.6684-1.6942 4.2567-4.2143 1.5883-2.5201 2.0966-5.6756 0.57179 0.36002 1.4401 0.59297 0.86828 0.23295 1.8848 0.23295zm-0.23295-5.6967v5.6967h12.791v-5.6967zm11.965 0v5.6967h12.791v-5.6967zm11.965 0v5.6967h12.791v-5.6967zm11.902 0v5.6967h1.6942v-5.6967zm7.7086 8.5345-3.4943 3.4731 3.4943 3.5155 3.4943-3.5155zm-7.158 0-3.4519 3.4731 3.4519 3.5155 3.5366-3.5155zm6.6921-17.429q0.10589 1.0801 0.14824 2.2236 0.06353 1.1224 0.06353 2.3083 0 2.2025-0.93181 3.2825-0.93181 1.0801-3.3249 1.0801h-2.0119v5.6967h2.0119q2.0119 0 3.7908-0.74121 1.8001-0.74121 3.0496-2.0966 0.63532 0.8471 1.5036 1.4824 0.86828 0.63532 2.0119 0.99534 1.1436 0.36002 2.5837 0.36002h0.4659v-5.6967h-0.42355q-1.1859 0-1.9483-0.44473-0.76239-0.44473-1.1648-1.2706-0.38119-0.82592-0.44473-1.9272l-0.42355-5.845zm8.5557 8.8945v5.6967h12.791v-5.6967zm11.923 0v5.6967h1.0165v-5.6967zm4.3626 8.3439-3.6637 3.6637 3.6637 3.6637 3.6637-3.6637zm-1.546-2.6472q3.4096 0 5.3791-1.2283 1.9695-1.2495 2.8166-3.4519 0.8471-2.2236 0.8471-5.1885 0-1.8213-0.27531-3.8119-0.25413-2.0119-0.78357-4.0873l-5.125 1.3765q0.59297 2.2872 0.82592 4.1508 0.25413 1.8636 0.25413 3.0284 0 2.0119-0.97416 2.7743-0.95299 0.74121-3.0072 0.74121h-2.3083v5.6967zm35.832 10.504q2.8801 0 4.9979-0.78357 2.1389-0.78357 3.5578-2.2872t2.1601-3.6637q0.76239-2.1601 0.93181-4.9132 0.48708 0.3812 0.97417 0.63532 0.50826 0.25413 1.1224 0.3812 0.63533 0.12706 1.5036 0.12706h0.59297v-5.6967h-0.63532q-2.1178 0-2.7742-1.2918-0.63533-1.2918-0.63533-3.4096v-19.399h-5.3791v26.853q0 2.4989-0.59297 4.2355-0.59297 1.7577-2.0119 2.6684-1.3977 0.93181-3.812 0.93181-2.4778 0-4.0661-0.78357-1.5671-0.76239-2.3507-2.266-0.76239-1.5036-0.76239-3.6425 0-1.906 0.55062-4.0873 0.55062-2.1813 1.2283-4.0873l-4.8073-1.8636q-0.93181 2.3931-1.5036 4.9979-0.55062 2.5837-0.55062 4.9979 0 3.8755 1.3554 6.6286 1.3554 2.7742 4.0661 4.2355 2.7319 1.4824 6.8403 1.4824zm15.036-16.201v5.6967h12.791v-5.6967zm11.965 0v5.6967h12.791v-5.6967zm11.965 0v5.6967h12.791v-5.6967zm11.965 0v5.6967h12.791v-5.6967zm11.965 0v5.6967h12.791v-5.6967zm11.965 0v5.6967h12.791v-5.6967zm11.965 0v5.6967h12.791v-5.6967zm11.965 0v5.6967h12.791v-5.6967zm11.965 0v5.6967h12.791v-5.6967zm11.944 0v5.6967h1.5036v-5.6967zm9.3816-19.759-3.4943 3.4731 3.4943 3.5155 3.4943-3.5155zm-7.158 0-3.4519 3.4731 3.4519 3.5155 3.5366-3.5155zm4.7861 10.864q0.10589 1.0801 0.14825 2.2236 0.0635 1.1224 0.0635 2.3083 0 2.2025-0.93181 3.2825t-3.3249 1.0801h-2.0119v5.6967h2.0119q2.0119 0 3.7908-0.74121 1.8001-0.74121 3.0496-2.0966 0.63533 0.8471 1.5036 1.4824 0.86828 0.63532 2.0119 0.99534 1.1436 0.36002 2.5836 0.36002h0.4659v-5.6967h-0.42355q-1.1859 0-1.9483-0.44473-0.76238-0.44473-1.1648-1.2706-0.38119-0.82592-0.44472-1.9272l-0.42355-5.845zm8.5557 8.8945v5.6967h12.791v-5.6967zm20.055-5.1461q0-1.2706 1.0377-2.1389 1.0377-0.88946 2.4778-0.88946 0.91063 0 1.6307 0.4659 0.74122 0.44473 1.1859 1.2283 0.44473 0.76239 0.44473 1.673 0 0.80474-0.52944 1.5036-0.52943 0.69886-1.2918 1.2071-0.76239 0.48708-1.4824 0.69886-0.91063-0.31766-1.7154-0.88946-0.78357-0.57179-1.2706-1.313-0.48709-0.74121-0.48709-1.546zm2.5625-6.7556q3.3672 1.5248 5.7391 2.7531 2.3931 1.2071 3.9178 2.1601t2.3719 1.6942q0.8471 0.74121 1.1859 1.313 0.36002 0.57179 0.36002 1.0377 0 1.8213-1.1012 2.5413-1.1012 0.69886-2.6048 0.69886-0.48708 0-1.4612-0.08471-0.95298-0.08471-1.9272-0.23295 0.6565-0.72004 1.1224-1.5671 0.4659-0.8471 0.72003-1.8213 0.27531-0.99534 0.27531-2.1389 0-2.0542-1.1859-3.6425-1.1648-1.6095-3.0072-2.5413-1.8213-0.93181-3.7484-0.93181-2.626 0-4.4684 1.1012-1.8213 1.0801-2.7742 2.8166t-0.95299 3.6425q0 0.8471 0.21178 1.7789 0.21177 0.93181 0.59297 1.7789 0.38119 0.82592 0.91063 1.4401-0.76239 0.06353-1.4824 0.08471-0.69886 0.02118-1.546 0.02118h-1.7789v5.6967h2.0542q2.3295 0 4.7649-0.57179 2.4566-0.57179 4.3626-1.2495 1.08 0.33884 2.5413 0.72003 1.4824 0.3812 3.0919 0.63532t3.0919 0.25413q4.1931 0 6.7133-2.1813 2.5413-2.2025 2.5413-6.3956 0-2.1389-1.0589-3.8331-1.0377-1.6942-3.0919-3.1978-2.0542-1.5036-5.0614-3.0707-3.0072-1.5671-6.925-3.4308z"/></g></g></svg>
